<?xml version="1.0" encoding="UTF-8" standalone="no"?>
<!-- Created with Inkscape (http://www.inkscape.org/) -->

<svg
   xmlns:dc="http://purl.org/dc/elements/1.1/"
   xmlns:cc="http://creativecommons.org/ns#"
   xmlns:rdf="http://www.w3.org/1999/02/22-rdf-syntax-ns#"
   xmlns:svg="http://www.w3.org/2000/svg"
   xmlns="http://www.w3.org/2000/svg"
   xmlns:sodipodi="http://sodipodi.sourceforge.net/DTD/sodipodi-0.dtd"
   xmlns:inkscape="http://www.inkscape.org/namespaces/inkscape"
   width="210mm"
   height="297mm"
   viewBox="0 0 744.09448819 1052.3622047"
   id="svg2"
   version="1.1"
   inkscape:version="0.91 r13725"
   sodipodi:docname="vector_icons_sprite.svg">
  <defs
     id="defs4">
    <linearGradient
       y2="1571.0183815895975"
       x2="240.5"
       y1="1603.99"
       x1="240.5"
       gradientUnits="userSpaceOnUse"
       id="SvgjsLinearGradient1014">
      <stop
         offset="0"
         stop-color="#222222"
         stop-opacity="1"
         id="SvgjsStop1015" />
      <stop
         offset="1"
         stop-color="#222222"
         stop-opacity="1"
         id="SvgjsStop1016" />
    </linearGradient>
  </defs>
  <sodipodi:namedview
     id="base"
     pagecolor="#ffffff"
     bordercolor="#666666"
     borderopacity="1.0"
     inkscape:pageopacity="0.0"
     inkscape:pageshadow="2"
     inkscape:zoom="2.8"
     inkscape:cx="177.55524"
     inkscape:cy="971.00899"
     inkscape:document-units="px"
     inkscape:current-layer="layer1"
     showgrid="false"
     inkscape:window-width="1920"
     inkscape:window-height="1028"
     inkscape:window-x="-8"
     inkscape:window-y="-8"
     inkscape:window-maximized="1" />
  <metadata
     id="metadata7">
    <rdf:RDF>
      <cc:Work
         rdf:about="">
        <dc:format>image/svg+xml</dc:format>
        <dc:type
           rdf:resource="http://purl.org/dc/dcmitype/StillImage" />
        <dc:title />
      </cc:Work>
    </rdf:RDF>
  </metadata>
  <g
     inkscape:label="Layer 1"
     inkscape:groupmode="layer"
     id="layer1">
    <g
       id="g3348"
       transform="matrix(0.30987484,0,0,0.30987484,72.955206,21.725049)">
      <path
         transform="translate(-2190,-3300)"
         d="m 2215.977,3377.1 c -9.966,0 -18.858,-5.55 -22.662,-14.16 -2.715,-6.15 -2.451,-12.93 0.681,-18.87 -0.636,-1.02 -1.176,-2.04 -1.632,-3.09 -3.009,-6.81 -3.099,-14.31 -0.255,-21.18 3.072,-7.41 9.102,-13.14 16.983,-16.14 9.354,-3.54 20.298,-2.43 28.629,2.79 2.334,-1.86 4.962,-3.36 7.833,-4.47 3.447,-1.29 7.071,-1.95 10.761,-1.95 11.613,0 21.981,6.45 26.415,16.47 0.036,0.09 0.075,0.18 0.108,0.24 1.227,-0.21 2.475,-0.3 3.723,-0.3 8.289,0 15.684,4.62 18.84,11.73 2.022,4.59 2.082,9.66 0.165,14.25 -2.007,4.86 -6.081,8.76 -11.199,10.77 0.99,3.51 0.771,7.2 -0.645,10.62 -1.857,4.47 -5.499,7.95 -10.251,9.75 -2.202,0.84 -4.518,1.26 -6.882,1.26 -4.263,0 -8.421,-1.41 -11.709,-3.96 -2.061,1.89 -4.398,3.33 -6.963,4.29 -2.691,1.02 -5.511,1.53 -8.388,1.53 -6.057,0 -11.919,-2.34 -16.137,-6.39 -2.325,2.22 -5.118,3.96 -8.196,5.13 -2.952,1.11 -6.054,1.68 -9.219,1.68 z m 4.617,-71.04 c -3.405,0 -6.747,0.6 -9.93,1.83 -6.714,2.55 -11.841,7.38 -14.436,13.65 -2.367,5.7 -2.292,11.94 0.213,17.61 0.519,1.17 1.179,2.37 2.013,3.6 l 0.813,1.2 -0.756,1.23 c -3.009,4.92 -3.417,10.74 -1.119,15.93 3.087,6.99 10.38,11.49 18.585,11.49 2.625,0 5.199,-0.45 7.644,-1.38 3.177,-1.23 5.976,-3.18 8.097,-5.67 l 1.719,-2.01 1.689,2.04 c 3.411,4.14 8.796,6.63 14.403,6.63 2.337,0 4.626,-0.42 6.81,-1.26 2.574,-0.99 4.866,-2.55 6.801,-4.65 l 1.557,-1.68 1.638,1.59 c 2.655,2.61 6.393,4.11 10.254,4.11 1.821,0 3.606,-0.33 5.307,-0.96 3.594,-1.38 6.33,-3.96 7.707,-7.29 1.236,-2.97 1.212,-6.21 -0.063,-9.18 l -0.168,-0.36 -0.96,-2.37 3.075,-0.81 c 0.378,-0.09 0.762,-0.18 1.14,-0.3 4.104,-1.56 7.239,-4.53 8.823,-8.34 1.434,-3.48 1.392,-7.26 -0.126,-10.71 -2.439,-5.52 -8.235,-9.06 -14.763,-9.06 -1.539,0 -3.069,0.18 -4.554,0.6 l -2.019,0.54 -0.669,-2.01 c -0.201,-0.57 -0.411,-1.17 -0.666,-1.74 -3.717,-8.4 -12.486,-13.83 -22.338,-13.83 -3.153,0 -6.243,0.57 -9.186,1.68 -2.904,1.11 -5.508,2.7 -7.743,4.74 l -1.326,1.23 -1.461,-1.05 c -4.575,-3.24 -10.26,-5.04 -16.005,-5.04 z m 37.134,110.94 -26.313,0 0.672,-2.79 c 0.204,-0.87 4.839,-21.39 -13.68,-37.71 l 2.937,-3.39 c 16.68,14.7 16.392,32.58 15.552,39.39 l 17.49,0 c 0.813,-17.49 10.605,-40.11 11.04,-41.1 l 3.549,1.8 c -0.105,0.24 -11.247,24.75 -11.247,41.55 z m -8.958,-13.14 -4.401,-0.72 2.232,-13.5 4.401,0.75 z m -8.658,-12.84 -6.693,-13.47 3.993,-2.01 6.693,13.47 z"
         id="SvgjsPath1007"
         inkscape:connector-curvature="0"
         style="fill:#ffffff;fill-opacity:1" />
      <path
         transform="translate(-2190,-3300)"
         d="m 2215.977,3377.1 c -9.966,0 -18.858,-5.55 -22.662,-14.16 -2.715,-6.15 -2.451,-12.93 0.681,-18.87 -0.636,-1.02 -1.176,-2.04 -1.632,-3.09 -3.009,-6.81 -3.099,-14.31 -0.255,-21.18 3.072,-7.41 9.102,-13.14 16.983,-16.14 9.354,-3.54 20.298,-2.43 28.629,2.79 2.334,-1.86 4.962,-3.36 7.833,-4.47 3.447,-1.29 7.071,-1.95 10.761,-1.95 11.613,0 21.981,6.45 26.415,16.47 0.036,0.09 0.075,0.18 0.108,0.24 1.227,-0.21 2.475,-0.3 3.723,-0.3 8.289,0 15.684,4.62 18.84,11.73 2.022,4.59 2.082,9.66 0.165,14.25 -2.007,4.86 -6.081,8.76 -11.199,10.77 0.99,3.51 0.771,7.2 -0.645,10.62 -1.857,4.47 -5.499,7.95 -10.251,9.75 -2.202,0.84 -4.518,1.26 -6.882,1.26 -4.263,0 -8.421,-1.41 -11.709,-3.96 -2.061,1.89 -4.398,3.33 -6.963,4.29 -2.691,1.02 -5.511,1.53 -8.388,1.53 -6.057,0 -11.919,-2.34 -16.137,-6.39 -2.325,2.22 -5.118,3.96 -8.196,5.13 -2.952,1.11 -6.054,1.68 -9.219,1.68 z m 4.617,-71.04 c -3.405,0 -6.747,0.6 -9.93,1.83 -6.714,2.55 -11.841,7.38 -14.436,13.65 -2.367,5.7 -2.292,11.94 0.213,17.61 0.519,1.17 1.179,2.37 2.013,3.6 l 0.813,1.2 -0.756,1.23 c -3.009,4.92 -3.417,10.74 -1.119,15.93 3.087,6.99 10.38,11.49 18.585,11.49 2.625,0 5.199,-0.45 7.644,-1.38 3.177,-1.23 5.976,-3.18 8.097,-5.67 l 1.719,-2.01 1.689,2.04 c 3.411,4.14 8.796,6.63 14.403,6.63 2.337,0 4.626,-0.42 6.81,-1.26 2.574,-0.99 4.866,-2.55 6.801,-4.65 l 1.557,-1.68 1.638,1.59 c 2.655,2.61 6.393,4.11 10.254,4.11 1.821,0 3.606,-0.33 5.307,-0.96 3.594,-1.38 6.33,-3.96 7.707,-7.29 1.236,-2.97 1.212,-6.21 -0.063,-9.18 l -0.168,-0.36 -0.96,-2.37 3.075,-0.81 c 0.378,-0.09 0.762,-0.18 1.14,-0.3 4.104,-1.56 7.239,-4.53 8.823,-8.34 1.434,-3.48 1.392,-7.26 -0.126,-10.71 -2.439,-5.52 -8.235,-9.06 -14.763,-9.06 -1.539,0 -3.069,0.18 -4.554,0.6 l -2.019,0.54 -0.669,-2.01 c -0.201,-0.57 -0.411,-1.17 -0.666,-1.74 -3.717,-8.4 -12.486,-13.83 -22.338,-13.83 -3.153,0 -6.243,0.57 -9.186,1.68 -2.904,1.11 -5.508,2.7 -7.743,4.74 l -1.326,1.23 -1.461,-1.05 c -4.575,-3.24 -10.26,-5.04 -16.005,-5.04 z m 37.134,110.94 -26.313,0 0.672,-2.79 c 0.204,-0.87 4.839,-21.39 -13.68,-37.71 l 2.937,-3.39 c 16.68,14.7 16.392,32.58 15.552,39.39 l 17.49,0 c 0.813,-17.49 10.605,-40.11 11.04,-41.1 l 3.549,1.8 c -0.105,0.24 -11.247,24.75 -11.247,41.55 z m -8.958,-13.14 -4.401,-0.72 2.232,-13.5 4.401,0.75 z m -8.658,-12.84 -6.693,-13.47 3.993,-2.01 6.693,13.47 z"
         id="SvgjsPath1008"
         inkscape:connector-curvature="0"
         style="fill:#444444;fill-opacity:1" />
    </g>
    <g
       id="g3372"
       transform="translate(172.92856,33.00107)">
      <path
         transform="translate(-222,-1571)"
         d="m 240.5,1574.32 c 8.324,0 15.072,6.54 15.072,14.6 0,3.9646 -1.62865,7.5575 -4.2727,10.1871 l 4.0717,3.9429 -0.969,0.94 -4.10356,-3.9738 c -2.63485,2.1849 -6.05749,3.5038 -9.79844,3.5038 -3.56611,0 -6.84296,-1.1985 -9.42389,-3.2031 l -3.79311,3.6731 -0.969,-0.94 3.73011,-3.6121 c -2.84573,-2.6549 -4.61611,-6.3844 -4.61611,-10.5179 0,-8.06 6.748,-14.6 15.072,-14.6 z m -13.702,14.6 c 0,7.33 6.135,13.28 13.702,13.28 7.567,0 13.702,-5.95 13.702,-13.28 0,-7.33 -6.135,-13.27 -13.702,-13.27 -7.567,0 -13.702,5.94 -13.702,13.27 z M 241,1592 l 0,-12 1,0 0,12 z m -7.351,-0.42 0,-1.33 6.851,0 0,1.33 z m 23.273,-18.56 c 2.44732,2.3804 2.72798,6.0317 0.76399,8.4698 l 0.031,0.03 -0.42622,0.4128 c -0.0289,0.029 -0.0582,0.058 -0.0878,0.087 -5e-5,0 -4.5e-4,-3e-4 -10e-4,-10e-4 l -0.27981,0.271 -9.53,-9.27 0.794,-0.77 0.0309,0.03 c 2.50592,-1.9111 6.25871,-1.6404 8.70511,0.74 z m -0.787,0.76 c -2.09975,-2.0308 -4.93162,-2.2715 -7.15008,-0.753 l 7.93422,7.717 c 1.59809,-2.131 1.32532,-4.9235 -0.78414,-6.964 z m -32.338,8.24 c -0.0329,-0.032 -0.0654,-0.064 -0.0975,-0.097 l -0.41554,-0.403 0.0305,-0.03 c -1.96447,-2.4382 -1.68395,-6.0898 0.76355,-8.4704 2.4464,-2.3804 6.19919,-2.6511 8.70511,-0.74 l 0.0309,-0.03 0.794,0.77 -9.53,9.27 -0.27962,-0.2712 c -8.6e-4,8e-4 -10e-4,0 -10e-4,0 z m 1.068,-8.24 c -2.10963,2.0407 -2.38227,4.8334 -0.78375,6.9645 l 7.93389,-7.7174 c -2.21847,-1.5186 -5.05037,-1.2779 -7.15013,0.7529 z"
         id="SvgjsPath1011"
         inkscape:connector-curvature="0"
         style="fill:#ffffff;fill-opacity:1" />
      <path
         transform="translate(-222,-1571)"
         d="m 240.5,1574.32 c 8.324,0 15.072,6.54 15.072,14.6 0,3.9646 -1.62865,7.5575 -4.2727,10.1871 l 4.0717,3.9429 -0.969,0.94 -4.10356,-3.9738 c -2.63485,2.1849 -6.05749,3.5038 -9.79844,3.5038 -3.56611,0 -6.84296,-1.1985 -9.42389,-3.2031 l -3.79311,3.6731 -0.969,-0.94 3.73011,-3.6121 c -2.84573,-2.6549 -4.61611,-6.3844 -4.61611,-10.5179 0,-8.06 6.748,-14.6 15.072,-14.6 z m -13.702,14.6 c 0,7.33 6.135,13.28 13.702,13.28 7.567,0 13.702,-5.95 13.702,-13.28 0,-7.33 -6.135,-13.27 -13.702,-13.27 -7.567,0 -13.702,5.94 -13.702,13.27 z M 241,1592 l 0,-12 1,0 0,12 z m -7.351,-0.42 0,-1.33 6.851,0 0,1.33 z m 23.273,-18.56 c 2.44732,2.3804 2.72798,6.0317 0.76399,8.4698 l 0.031,0.03 -0.42622,0.4128 c -0.0289,0.029 -0.0582,0.058 -0.0878,0.087 -5e-5,0 -4.5e-4,-3e-4 -10e-4,-10e-4 l -0.27981,0.271 -9.53,-9.27 0.794,-0.77 0.0309,0.03 c 2.50592,-1.9111 6.25871,-1.6404 8.70511,0.74 z m -0.787,0.76 c -2.09975,-2.0308 -4.93162,-2.2715 -7.15008,-0.753 l 7.93422,7.717 c 1.59809,-2.131 1.32532,-4.9235 -0.78414,-6.964 z m -32.338,8.24 c -0.0329,-0.032 -0.0654,-0.064 -0.0975,-0.097 l -0.41554,-0.403 0.0305,-0.03 c -1.96447,-2.4382 -1.68395,-6.0898 0.76355,-8.4704 2.4464,-2.3804 6.19919,-2.6511 8.70511,-0.74 l 0.0309,-0.03 0.794,0.77 -9.53,9.27 -0.27962,-0.2712 c -8.6e-4,8e-4 -10e-4,0 -10e-4,0 z m 1.068,-8.24 c -2.10963,2.0407 -2.38227,4.8334 -0.78375,6.9645 l 7.93389,-7.7174 c -2.21847,-1.5186 -5.05037,-1.2779 -7.15013,0.7529 z"
         id="SvgjsPath1012"
         inkscape:connector-curvature="0"
         style="fill:#ffffff;fill-opacity:1" />
      <path
         transform="translate(-222,-1571)"
         d="m 240.5,1574.32 c 8.324,0 15.072,6.54 15.072,14.6 0,3.9646 -1.62865,7.5575 -4.2727,10.1871 l 4.0717,3.9429 -0.969,0.94 -4.10356,-3.9738 c -2.63485,2.1849 -6.05749,3.5038 -9.79844,3.5038 -3.56611,0 -6.84296,-1.1985 -9.42389,-3.2031 l -3.79311,3.6731 -0.969,-0.94 3.73011,-3.6121 c -2.84573,-2.6549 -4.61611,-6.3844 -4.61611,-10.5179 0,-8.06 6.748,-14.6 15.072,-14.6 z m -13.702,14.6 c 0,7.33 6.135,13.28 13.702,13.28 7.567,0 13.702,-5.95 13.702,-13.28 0,-7.33 -6.135,-13.27 -13.702,-13.27 -7.567,0 -13.702,5.94 -13.702,13.27 z M 241,1592 l 0,-12 1,0 0,12 z m -7.351,-0.42 0,-1.33 6.851,0 0,1.33 z m 23.273,-18.56 c 2.44732,2.3804 2.72798,6.0317 0.76399,8.4698 l 0.031,0.03 -0.42622,0.4128 c -0.0289,0.029 -0.0582,0.058 -0.0878,0.087 -5e-5,0 -4.5e-4,-3e-4 -10e-4,-10e-4 l -0.27981,0.271 -9.53,-9.27 0.794,-0.77 0.0309,0.03 c 2.50592,-1.9111 6.25871,-1.6404 8.70511,0.74 z m -0.787,0.76 c -2.09975,-2.0308 -4.93162,-2.2715 -7.15008,-0.753 l 7.93422,7.717 c 1.59809,-2.131 1.32532,-4.9235 -0.78414,-6.964 z m -32.338,8.24 c -0.0329,-0.032 -0.0654,-0.064 -0.0975,-0.097 l -0.41554,-0.403 0.0305,-0.03 c -1.96447,-2.4382 -1.68395,-6.0898 0.76355,-8.4704 2.4464,-2.3804 6.19919,-2.6511 8.70511,-0.74 l 0.0309,-0.03 0.794,0.77 -9.53,9.27 -0.27962,-0.2712 c -8.6e-4,8e-4 -10e-4,0 -10e-4,0 z m 1.068,-8.24 c -2.10963,2.0407 -2.38227,4.8334 -0.78375,6.9645 l 7.93389,-7.7174 c -2.21847,-1.5186 -5.05037,-1.2779 -7.15013,0.7529 z"
         id="SvgjsPath1013"
         inkscape:connector-curvature="0"
         style="fill:url(#SvgjsLinearGradient1014)" />
      <path
         transform="translate(-222,-1571)"
         d="m 240.5,1574.32 c 8.324,0 15.072,6.54 15.072,14.6 0,3.9646 -1.62865,7.5575 -4.2727,10.1871 l 4.0717,3.9429 -0.969,0.94 -4.10356,-3.9738 c -2.63485,2.1849 -6.05749,3.5038 -9.79844,3.5038 -3.56611,0 -6.84296,-1.1985 -9.42389,-3.2031 l -3.79311,3.6731 -0.969,-0.94 3.73011,-3.6121 c -2.84573,-2.6549 -4.61611,-6.3844 -4.61611,-10.5179 0,-8.06 6.748,-14.6 15.072,-14.6 z m -13.702,14.6 c 0,7.33 6.135,13.28 13.702,13.28 7.567,0 13.702,-5.95 13.702,-13.28 0,-7.33 -6.135,-13.27 -13.702,-13.27 -7.567,0 -13.702,5.94 -13.702,13.27 z M 241,1592 l 0,-12 1,0 0,12 z m -7.351,-0.42 0,-1.33 6.851,0 0,1.33 z m 23.273,-18.56 c 2.44732,2.3804 2.72798,6.0317 0.76399,8.4698 l 0.031,0.03 -0.42622,0.4128 c -0.0289,0.029 -0.0582,0.058 -0.0878,0.087 -5e-5,0 -4.5e-4,-3e-4 -10e-4,-10e-4 l -0.27981,0.271 -9.53,-9.27 0.794,-0.77 0.0309,0.03 c 2.50592,-1.9111 6.25871,-1.6404 8.70511,0.74 z m -0.787,0.76 c -2.09975,-2.0308 -4.93162,-2.2715 -7.15008,-0.753 l 7.93422,7.717 c 1.59809,-2.131 1.32532,-4.9235 -0.78414,-6.964 z m -32.338,8.24 c -0.0329,-0.032 -0.0654,-0.064 -0.0975,-0.097 l -0.41554,-0.403 0.0305,-0.03 c -1.96447,-2.4382 -1.68395,-6.0898 0.76355,-8.4704 2.4464,-2.3804 6.19919,-2.6511 8.70511,-0.74 l 0.0309,-0.03 0.794,0.77 -9.53,9.27 -0.27962,-0.2712 c -8.6e-4,8e-4 -10e-4,0 -10e-4,0 z m 1.068,-8.24 c -2.10963,2.0407 -2.38227,4.8334 -0.78375,6.9645 l 7.93389,-7.7174 c -2.21847,-1.5186 -5.05037,-1.2779 -7.15013,0.7529 z"
         id="SvgjsPath1017"
         inkscape:connector-curvature="0"
         style="fill:#222222;fill-opacity:1" />
    </g>
    <g
       id="g3390"
       transform="translate(170.78572,96.224349)">
      <path
         transform="translate(-1023,-1568)"
         d="m 1058.25,1605.19 c 6.48,0 11.75,-5.2 11.75,-11.6 0,-6.39 -5.27,-11.6 -11.75,-11.6 -6.48,0 -11.75,5.21 -11.75,11.6 0,6.4 5.27,11.6 11.75,11.6 z m 0,-21.6 c 5.59,0 10.13,4.49 10.13,10 0,5.52 -4.54,10 -10.13,10 -5.59,0 -10.13,-4.48 -10.13,-10 0,-5.51 4.54,-10 10.13,-10 z m 0,16.8 c 3.8,0 6.89,-3.05 6.89,-6.8 0,-3.75 -3.09,-6.8 -6.89,-6.8 -3.8,0 -6.89,3.05 -6.89,6.8 0,3.75 3.09,6.8 6.89,6.8 z m 0,-12 c 2.9,0 5.27,2.34 5.27,5.2 0,2.87 -2.37,5.2 -5.27,5.2 -2.9,0 -5.27,-2.33 -5.27,-5.2 0,-2.86 2.37,-5.2 5.27,-5.2 z m -28.77,17.6 c 3.58,0 6.49,-2.87 6.49,-6.4 0,-3.53 -2.91,-6.4 -6.49,-6.4 -3.57,0 -6.48,2.87 -6.48,6.4 0,3.53 2.91,6.4 6.48,6.4 z m 0,-11.2 c 2.68,0 4.86,2.16 4.86,4.8 0,2.65 -2.18,4.8 -4.86,4.8 -2.68,0 -4.86,-2.15 -4.86,-4.8 0,-2.64 2.18,-4.8 4.86,-4.8 z m 4.86,4.74 15.4,0 -0.68,-1.27 c -0.62,-1.35 -0.94,-2.79 -0.94,-4.27 0,-3.77 2.08,-7.26 5.44,-9.1 l 2.74,-1.5 -27.63,0 c -2.23,0 -4.05,1.8 -4.05,4 l 0,8 c 0,0.09 0.01,0.18 0.02,0.27 l 0.15,1.73 1.24,-1.18 c 0.92,-0.91 2.15,-1.42 3.45,-1.42 2.35,0 4.36,1.66 4.78,3.95 z m 12.97,-1.61 -11.34,0 c -0.8,-2.71 -3.58,-4.73 -6.49,-4.73 -1.15,0 -2.26,0.3 -3.23,0.85 l -0.01,-6.65 c 0,-1.32 1.09,-2.4 2.43,-2.4 l 21.95,0 c -2.59,2.26 -4.12,5.52 -4.12,9 0,1.3 0.39,2.7 0.81,3.93 z m -21.07,-6.48 10.54,0 c 0.44,0 0.81,-0.36 0.81,-0.81 0,-0.45 -0.37,-0.81 -0.81,-0.81 l -10.54,0 c -0.45,0 -0.81,0.36 -0.81,0.81 0,0.45 0.36,0.81 0.81,0.81 z m 0,-3.25 10.54,0 c 0.44,0 0.81,-0.36 0.81,-0.8 0,-0.44 -0.37,-0.8 -0.81,-0.8 l -10.54,0 c -0.45,0 -0.81,0.36 -0.81,0.8 0,0.44 0.36,0.8 0.81,0.8 z m 23.61,-5.92 c 0.3,0 0.6,-0.17 0.73,-0.46 0.19,-0.4 0.02,-0.88 -0.39,-1.06 l -4.67,-2.16 c -0.41,-0.18 -0.89,-0.01 -1.08,0.39 -0.19,0.4 -0.01,0.88 0.39,1.06 l 4.68,2.16 c 0.11,0.05 0.22,0.07 0.34,0.07 z m -2.54,1.92 c 0.45,0 0.81,-0.36 0.81,-0.8 l 0,-2.4 c 0,-0.44 -0.36,-0.8 -0.81,-0.8 -0.45,0 -0.81,0.36 -0.81,0.8 l 0,2.4 c 0,0.44 0.36,0.8 0.81,0.8 z m 7.43,-0.88 c 0.36,0 0.69,-0.24 0.78,-0.61 l 1.36,-5.43 c 0.1,-0.43 -0.16,-0.87 -0.6,-0.97 -0.43,-0.11 -0.87,0.15 -0.98,0.58 l -1.35,5.44 c -0.11,0.43 0.16,0.86 0.59,0.97 0.07,0.02 0.13,0.02 0.2,0.02 z M 1031,1583 l 0,-5 2,0 0,5 z m 3,0 0,-5 1,0 0,5 z m -0.54,-6.38 c 0.85,-1.47 1.81,-2.54 2.94,-3.29 l -0.9,-1.33 c -1.34,0.89 -2.47,2.14 -3.45,3.83 z m 15.97,-3.66 0.18,-1.59 c -0.96,-0.11 -1.96,-0.26 -2.92,-0.4 -1.32,-0.2 -2.68,-0.41 -4.01,-0.5 l -0.11,1.6 c 1.26,0.08 2.59,0.28 3.88,0.48 0.97,0.15 1.98,0.3 2.98,0.41 z m 7.25,-0.75 c 1.56,-0.68 2.89,-1.73 4.07,-3.22 l -1.28,-0.99 c -1.01,1.28 -2.14,2.18 -3.44,2.74 z m -25.58,27.16 c 0,0.88 -0.72,1.6 -1.62,1.6 -0.89,0 -1.62,-0.72 -1.62,-1.6 0,-0.88 0.73,-1.6 1.62,-1.6 0.9,0 1.62,0.72 1.62,1.6 z m 28.64,-5.78 c 0,0.89 -0.73,1.6 -1.63,1.6 -0.89,0 -1.62,-0.71 -1.62,-1.6 0,-0.88 0.73,-1.6 1.62,-1.6 0.9,0 1.63,0.72 1.63,1.6 z"
         id="SvgjsPath1024"
         inkscape:connector-curvature="0"
         style="fill:#ffffff;fill-opacity:1" />
      <path
         transform="translate(-1023,-1568)"
         d="m 1058.25,1605.19 c 6.48,0 11.75,-5.2 11.75,-11.6 0,-6.39 -5.27,-11.6 -11.75,-11.6 -6.48,0 -11.75,5.21 -11.75,11.6 0,6.4 5.27,11.6 11.75,11.6 z m 0,-21.6 c 5.59,0 10.13,4.49 10.13,10 0,5.52 -4.54,10 -10.13,10 -5.59,0 -10.13,-4.48 -10.13,-10 0,-5.51 4.54,-10 10.13,-10 z m 0,16.8 c 3.8,0 6.89,-3.05 6.89,-6.8 0,-3.75 -3.09,-6.8 -6.89,-6.8 -3.8,0 -6.89,3.05 -6.89,6.8 0,3.75 3.09,6.8 6.89,6.8 z m 0,-12 c 2.9,0 5.27,2.34 5.27,5.2 0,2.87 -2.37,5.2 -5.27,5.2 -2.9,0 -5.27,-2.33 -5.27,-5.2 0,-2.86 2.37,-5.2 5.27,-5.2 z m -28.77,17.6 c 3.58,0 6.49,-2.87 6.49,-6.4 0,-3.53 -2.91,-6.4 -6.49,-6.4 -3.57,0 -6.48,2.87 -6.48,6.4 0,3.53 2.91,6.4 6.48,6.4 z m 0,-11.2 c 2.68,0 4.86,2.16 4.86,4.8 0,2.65 -2.18,4.8 -4.86,4.8 -2.68,0 -4.86,-2.15 -4.86,-4.8 0,-2.64 2.18,-4.8 4.86,-4.8 z m 4.86,4.74 15.4,0 -0.68,-1.27 c -0.62,-1.35 -0.94,-2.79 -0.94,-4.27 0,-3.77 2.08,-7.26 5.44,-9.1 l 2.74,-1.5 -27.63,0 c -2.23,0 -4.05,1.8 -4.05,4 l 0,8 c 0,0.09 0.01,0.18 0.02,0.27 l 0.15,1.73 1.24,-1.18 c 0.92,-0.91 2.15,-1.42 3.45,-1.42 2.35,0 4.36,1.66 4.78,3.95 z m 12.97,-1.61 -11.34,0 c -0.8,-2.71 -3.58,-4.73 -6.49,-4.73 -1.15,0 -2.26,0.3 -3.23,0.85 l -0.01,-6.65 c 0,-1.32 1.09,-2.4 2.43,-2.4 l 21.95,0 c -2.59,2.26 -4.12,5.52 -4.12,9 0,1.3 0.39,2.7 0.81,3.93 z m -21.07,-6.48 10.54,0 c 0.44,0 0.81,-0.36 0.81,-0.81 0,-0.45 -0.37,-0.81 -0.81,-0.81 l -10.54,0 c -0.45,0 -0.81,0.36 -0.81,0.81 0,0.45 0.36,0.81 0.81,0.81 z m 0,-3.25 10.54,0 c 0.44,0 0.81,-0.36 0.81,-0.8 0,-0.44 -0.37,-0.8 -0.81,-0.8 l -10.54,0 c -0.45,0 -0.81,0.36 -0.81,0.8 0,0.44 0.36,0.8 0.81,0.8 z m 23.61,-5.92 c 0.3,0 0.6,-0.17 0.73,-0.46 0.19,-0.4 0.02,-0.88 -0.39,-1.06 l -4.67,-2.16 c -0.41,-0.18 -0.89,-0.01 -1.08,0.39 -0.19,0.4 -0.01,0.88 0.39,1.06 l 4.68,2.16 c 0.11,0.05 0.22,0.07 0.34,0.07 z m -2.54,1.92 c 0.45,0 0.81,-0.36 0.81,-0.8 l 0,-2.4 c 0,-0.44 -0.36,-0.8 -0.81,-0.8 -0.45,0 -0.81,0.36 -0.81,0.8 l 0,2.4 c 0,0.44 0.36,0.8 0.81,0.8 z m 7.43,-0.88 c 0.36,0 0.69,-0.24 0.78,-0.61 l 1.36,-5.43 c 0.1,-0.43 -0.16,-0.87 -0.6,-0.97 -0.43,-0.11 -0.87,0.15 -0.98,0.58 l -1.35,5.44 c -0.11,0.43 0.16,0.86 0.59,0.97 0.07,0.02 0.13,0.02 0.2,0.02 z M 1031,1583 l 0,-5 2,0 0,5 z m 3,0 0,-5 1,0 0,5 z m -0.54,-6.38 c 0.85,-1.47 1.81,-2.54 2.94,-3.29 l -0.9,-1.33 c -1.34,0.89 -2.47,2.14 -3.45,3.83 z m 15.97,-3.66 0.18,-1.59 c -0.96,-0.11 -1.96,-0.26 -2.92,-0.4 -1.32,-0.2 -2.68,-0.41 -4.01,-0.5 l -0.11,1.6 c 1.26,0.08 2.59,0.28 3.88,0.48 0.97,0.15 1.98,0.3 2.98,0.41 z m 7.25,-0.75 c 1.56,-0.68 2.89,-1.73 4.07,-3.22 l -1.28,-0.99 c -1.01,1.28 -2.14,2.18 -3.44,2.74 z m -25.58,27.16 c 0,0.88 -0.72,1.6 -1.62,1.6 -0.89,0 -1.62,-0.72 -1.62,-1.6 0,-0.88 0.73,-1.6 1.62,-1.6 0.9,0 1.62,0.72 1.62,1.6 z m 28.64,-5.78 c 0,0.89 -0.73,1.6 -1.63,1.6 -0.89,0 -1.62,-0.71 -1.62,-1.6 0,-0.88 0.73,-1.6 1.62,-1.6 0.9,0 1.63,0.72 1.63,1.6 z"
         id="SvgjsPath1025"
         inkscape:connector-curvature="0"
         style="fill:#222222;fill-opacity:1" />
    </g>
    <g
       id="g3406"
       transform="translate(270.57142,33.005063)"
       inkscape:transform-center-x="-368.57143"
       inkscape:transform-center-y="177.14286">
      <path
         transform="translate(-623,-1573)"
         d="m 627.959,1605.99 c -1.823,0 -3.306,-1.46 -3.306,-3.26 0,-1.8 1.483,-3.26 3.306,-3.26 1.823,0 3.306,1.46 3.306,3.26 0,1.8 -1.483,3.26 -3.306,3.26 z m 0,-5.07 c -1.012,0 -1.836,0.81 -1.836,1.81 0,1 0.824,1.81 1.836,1.81 1.013,0 1.837,-0.81 1.837,-1.81 0,-1 -0.824,-1.81 -1.837,-1.81 z m 13.225,-7.98 c -1.823,0 -3.306,-1.46 -3.306,-3.26 0,-1.8 1.483,-3.26 3.306,-3.26 1.823,0 3.306,1.46 3.306,3.26 0,1.8 -1.483,3.26 -3.306,3.26 z m 0,-5.07 c -1.013,0 -1.837,0.81 -1.837,1.81 0,1 0.824,1.81 1.837,1.81 1.013,0 1.836,-0.81 1.836,-1.81 0,-1 -0.823,-1.81 -1.836,-1.81 z m -12.49,12.86 -1.469,0 c 0,-6.52 5.326,-11.61 11.938,-11.61 l 0,1.45 c -5.877,0 -10.469,4.36 -10.469,10.16 z m 26.082,-21.2 c -1.824,0 -3.307,-1.46 -3.307,-3.26 0,-1.8 1.483,-3.26 3.307,-3.26 1.823,0 3.306,1.46 3.306,3.26 0,1.8 -1.483,3.26 -3.306,3.26 z m 0,-5.08 c -1.013,0 -1.837,0.82 -1.837,1.82 0,1 0.824,1.81 1.837,1.81 1.013,0 1.836,-0.81 1.836,-1.81 0,-1 -0.823,-1.82 -1.836,-1.82 z m -11.205,15.59 0,-1.45 c 5.878,0 10.299,-4.53 10.299,-10.33 l 1.469,0 c 0,6.53 -5.155,11.78 -11.768,11.78 z m 0.429,0.96 0,-2 10,0 0,2 z m -16,0 0,-2 11,0 0,2 z m 31,1.76 -5.877,0 0,-5.68 5.877,0 z m -4.408,-1.38 2.939,0 0,-2.87 -2.939,0 z m -25.714,1.38 -5.878,0 0,-5.68 5.878,0 z m -4.409,-1.38 2.939,0 0,-2.87 -2.939,0 z"
         id="SvgjsPath1020"
         inkscape:connector-curvature="0"
         style="fill:#ffffff;fill-opacity:1" />
      <path
         transform="translate(-623,-1573)"
         d="m 627.959,1605.99 c -1.823,0 -3.306,-1.46 -3.306,-3.26 0,-1.8 1.483,-3.26 3.306,-3.26 1.823,0 3.306,1.46 3.306,3.26 0,1.8 -1.483,3.26 -3.306,3.26 z m 0,-5.07 c -1.012,0 -1.836,0.81 -1.836,1.81 0,1 0.824,1.81 1.836,1.81 1.013,0 1.837,-0.81 1.837,-1.81 0,-1 -0.824,-1.81 -1.837,-1.81 z m 13.225,-7.98 c -1.823,0 -3.306,-1.46 -3.306,-3.26 0,-1.8 1.483,-3.26 3.306,-3.26 1.823,0 3.306,1.46 3.306,3.26 0,1.8 -1.483,3.26 -3.306,3.26 z m 0,-5.07 c -1.013,0 -1.837,0.81 -1.837,1.81 0,1 0.824,1.81 1.837,1.81 1.013,0 1.836,-0.81 1.836,-1.81 0,-1 -0.823,-1.81 -1.836,-1.81 z m -12.49,12.86 -1.469,0 c 0,-6.52 5.326,-11.61 11.938,-11.61 l 0,1.45 c -5.877,0 -10.469,4.36 -10.469,10.16 z m 26.082,-21.2 c -1.824,0 -3.307,-1.46 -3.307,-3.26 0,-1.8 1.483,-3.26 3.307,-3.26 1.823,0 3.306,1.46 3.306,3.26 0,1.8 -1.483,3.26 -3.306,3.26 z m 0,-5.08 c -1.013,0 -1.837,0.82 -1.837,1.82 0,1 0.824,1.81 1.837,1.81 1.013,0 1.836,-0.81 1.836,-1.81 0,-1 -0.823,-1.82 -1.836,-1.82 z m -11.205,15.59 0,-1.45 c 5.878,0 10.299,-4.53 10.299,-10.33 l 1.469,0 c 0,6.53 -5.155,11.78 -11.768,11.78 z m 0.429,0.96 0,-2 10,0 0,2 z m -16,0 0,-2 11,0 0,2 z m 31,1.76 -5.877,0 0,-5.68 5.877,0 z m -4.408,-1.38 2.939,0 0,-2.87 -2.939,0 z m -25.714,1.38 -5.878,0 0,-5.68 5.878,0 z m -4.409,-1.38 2.939,0 0,-2.87 -2.939,0 z"
         id="SvgjsPath1021"
         inkscape:connector-curvature="0"
         style="fill:#222222;fill-opacity:1" />
    </g>
    <g
       id="g3352"
       transform="matrix(0.64223764,0,0,0.64223764,277.28571,101.07772)">
      <path
         id="path3354"
         d="M 24,3 C 24,2.4 23.6,2 23,2 L 1,2 C 0.4,2 0,2.4 0,3 l 0,2 c 0,0.6 0.4,1 1,1 l 22,0 c 0.6,0 1,-0.4 1,-1 l 0,-2 z"
         inkscape:connector-curvature="0" />
      <path
         id="path3356"
         d="m 24,11 c 0,-0.6 -0.4,-1 -1,-1 L 1,10 c -0.6,0 -1,0.4 -1,1 l 0,2 c 0,0.6 0.4,1 1,1 l 22,0 c 0.6,0 1,-0.4 1,-1 l 0,-2 z"
         inkscape:connector-curvature="0" />
      <path
         id="path3358"
         d="m 24,19 c 0,-0.6 -0.4,-1 -1,-1 L 1,18 c -0.6,0 -1,0.4 -1,1 l 0,2 c 0,0.6 0.4,1 1,1 l 22,0 c 0.6,0 1,-0.4 1,-1 l 0,-2 z"
         inkscape:connector-curvature="0" />
    </g>
  </g>
</svg>
